<?xml version="1.0" encoding="UTF-8" standalone="no"?>
<!-- Created with Inkscape (http://www.inkscape.org/) -->

<svg
   width="53.996185mm"
   height="41.506229mm"
   viewBox="0 0 53.996185 41.506229"
   version="1.1"
   id="svg1"
   sodipodi:docname="holy shit do not crash.svg"
   inkscape:version="1.3.2 (091e20ef0f, 2023-11-25)"
   xmlns:inkscape="http://www.inkscape.org/namespaces/inkscape"
   xmlns:sodipodi="http://sodipodi.sourceforge.net/DTD/sodipodi-0.dtd"
   xmlns="http://www.w3.org/2000/svg"
   xmlns:svg="http://www.w3.org/2000/svg">
  <sodipodi:namedview
     id="namedview1"
     pagecolor="#ffffff"
     bordercolor="#000000"
     borderopacity="0.25"
     inkscape:showpageshadow="2"
     inkscape:pageopacity="0.0"
     inkscape:pagecheckerboard="0"
     inkscape:deskcolor="#d1d1d1"
     inkscape:document-units="mm"
     inkscape:zoom="2.0311448"
     inkscape:cx="256.25943"
     inkscape:cy="449.00787"
     inkscape:window-width="1536"
     inkscape:window-height="795"
     inkscape:window-x="0"
     inkscape:window-y="0"
     inkscape:window-maximized="1"
     inkscape:current-layer="layer1"
     showguides="true" />
  <defs
     id="defs1" />
  <g
     inkscape:label="Layer 1"
     inkscape:groupmode="layer"
     id="layer1"
     transform="translate(-37.029263,-92.8822)">
    <g
       id="path1">
      <path
         style="color:#000000;fill:#000000;-inkscape-stroke:none"
         d="M 47.805068,98.004998 V 134.38843"
         id="path2" />
    </g>
    <path
       id="rect3"
       style="stroke-width:1.32292"
       d="m 42.715739,108.48589 v 15.42127 a 1.3229167,1.3229167 45 0 0 1.322917,1.32292 h 1.782836 a 1.3229167,1.3229167 135 0 0 1.322917,-1.32292 v -15.42127 a 1.3229167,1.3229167 45 0 0 -1.322917,-1.32292 h -1.782836 a 1.3229167,1.3229167 135 0 0 -1.322917,1.32292 z m 5.75107,0 v 15.42127 a 1.3229167,1.3229167 45 0 0 1.322917,1.32292 h 3.626651 a 1.3229167,1.3229167 135 0 0 1.322917,-1.32292 v -15.42127 a 1.3229167,1.3229167 45 0 0 -1.322917,-1.32292 h -3.626651 a 1.3229167,1.3229167 135 0 0 -1.322917,1.32292 z m 24.848096,0 v 15.42127 a 1.3229167,1.3229167 45 0 0 1.322917,1.32292 h 3.626651 a 1.3229167,1.3229167 135 0 0 1.322917,-1.32292 v -15.42127 a 1.3229167,1.3229167 45 0 0 -1.322917,-1.32292 h -3.626651 a 1.3229167,1.3229167 135 0 0 -1.322917,1.32292 z m 7.594885,0 v 15.42127 a 1.3229167,1.3229167 45 0 0 1.322917,1.32292 h 1.782836 a 1.3229167,1.3229167 135 0 0 1.322917,-1.32292 v -15.42127 a 1.3229167,1.3229167 45 0 0 -1.322917,-1.32292 h -1.782836 a 1.3229167,1.3229167 135 0 0 -1.322917,1.32292 z m -43.880526,4.54339 v 6.33449 a 1.3229167,1.3229167 45 0 0 1.322917,1.32292 h 1.717724 a 1.3229167,1.3229167 135 0 0 1.322917,-1.32292 v -6.33449 a 1.3229167,1.3229167 45 0 0 -1.322917,-1.32292 h -1.717724 a 1.3229167,1.3229167 135 0 0 -1.322917,1.32292 z m 49.632113,0 v 6.33449 a 1.3229167,1.3229167 45 0 0 1.322917,1.32292 h 1.718241 a 1.3229167,1.3229167 135 0 0 1.322917,-1.32292 v -6.33449 a 1.3229167,1.3229167 45 0 0 -1.322917,-1.32292 h -1.718241 a 1.3229167,1.3229167 135 0 0 -1.322917,1.32292 z m -30.599166,2.56884 v 1.19681 a 1.3229167,1.3229167 45 0 0 1.322917,1.32292 h 13.283943 a 1.3229167,1.3229167 135 0 0 1.322917,-1.32292 v -1.19681 A 1.3229167,1.3229167 45 0 0 70.669071,114.2752 H 57.385128 a 1.3229167,1.3229167 135 0 0 -1.322917,1.32292 z" />
    <path
       id="path7"
       style="fill:#35d900;fill-opacity:1;fill-rule:nonzero;stroke:#00ff00;stroke-width:0;stroke-dasharray:none"
       d="m 68.972422,122.09338 c -2.545033,2.44443 -7.850745,6.21123 -12.329438,7.22982 -2.067827,0.70064 -4.343825,-1.04737 -3.989419,-3.27505 0.270728,-4.13726 2.964573,-7.87232 5.275514,-11.19148 3.635178,-4.92107 7.952465,-9.40077 13.114895,-12.65006 2.066588,-1.14068 4.451408,-2.405384 6.901661,-1.98903 2.246864,0.82807 2.604461,3.45083 1.970793,5.10023 9.127416,-7.829447 5.901481,-12.665387 3.570664,-12.427194 -3.933704,0.126142 -7.468636,2.190983 -10.77152,4.153135 -7.20448,4.604199 -13.680818,10.544919 -18.327349,17.760489 -9.467669,15.13639 -2.276669,17.40595 0.804324,17.05386 6.417423,-1.06097 13.340683,-7.20504 13.779871,-9.76472 z"
       sodipodi:nodetypes="ccccccccccccc"
       inkscape:linked-fill="path9" />
  </g>
</svg>
